<svg xmlns="http://www.w3.org/2000/svg" width="113" height="32" viewBox="0 0 113 32" fill="none"><path d="M2 31h66.5V1H2v30zm53.25-14c-.875-.375-1.462-.45-2.3-1-.838-.55-1.45-1.113-1.45-2.375 0-1.838 1.362-2.875 3.5-2.875s3.5 1.2 3.5 3.175h-2.325c0-.65-.387-1.225-1.175-1.225s-1.125.475-1.125.925c0 .45.225.8 1.375 1.25 1.15.45 1.487.537 2.288 1.05.8.512 1.212 1.35 1.212 2.325 0 1.863-1.6 3-3.625 3s-3.875-1.113-3.875-3.5h2.35c0 .962.712 1.5 1.4 1.5s1.35-.4 1.35-1.087c0-.45-.238-.788-1.1-1.163zm-9 0c-.875-.375-1.462-.45-2.3-1-.838-.55-1.45-1.113-1.45-2.375 0-1.838 1.362-2.875 3.5-2.875s3.5 1.2 3.5 3.175h-2.325c0-.65-.387-1.225-1.175-1.225s-1.125.475-1.125.925c0 .45.225.8 1.375 1.25 1.15.45 1.487.537 2.288 1.05.8.512 1.212 1.35 1.212 2.325 0 1.863-1.6 3-3.625 3s-3.875-1.113-3.875-3.5h2.35c0 .962.712 1.5 1.4 1.5s1.35-.4 1.35-1.087c0-.45-.238-.788-1.1-1.163zm-11.125-6h2.5l3.625 10h-2.5l-.425-1.25h-3.913L33.988 21h-2.5l3.638-10zM24 11h2.5v7.75h3.25V21H24V11zm-7-.25c2.462 0 4.538 1.7 5.1 4h-2.375A2.987 2.987 0 0017 13c-1.662 0-3 1.338-3 3 0 1.663 1.338 3 3 3 1.212 0 2.25-.712 2.725-1.75H22.1c-.563 2.3-2.625 4-5.1 4a5.25 5.25 0 110-10.5zm19.375 3.162l-1.288 3.838h2.575l-1.287-3.838zM91 13c-1.662 0-3 1.338-3 3 0 1.663 1.338 3 3 3s3-1.337 3-3c0-1.662-1.338-3-3-3zM71 1v30h40V1H71zm12.5 20H81V11h2.5v10zm7.5.25a5.25 5.25 0 110-10.5 5.25 5.25 0 110 10.5zm10-.25h-2.5V11h2.5v10z" fill="#1B1C1D"/></svg>